<svg version="1.1" baseProfile="basic"
	 xmlns="http://www.w3.org/2000/svg" xmlns:xlink="http://www.w3.org/1999/xlink" 
	 x="0px" y="0px" width="250.9px" height="39.5px" viewBox="0 0 250.9 39.5" overflow="visible">
	<style>
		g.letters {
			width: 0;
			overflow: hidden;
			will-change: transform;
			transform: translateX(105px);
			animation: bracketTranslateReverse 1.05s forwards cubic-bezier(0.47, 0, 0.75, 0.72);
		}

		g.letters path {
		 	opacity: 0;
		 	will-change: opacity;
		}
	
		g.letters path:nth-child(1) {
		 	animation: showLetter 0.25s forwards cubic-bezier(0.47, 0, 0.75, 0.72) 0.2s;
		}

		g.letters path:nth-child(2) {
		 	animation: showLetter 0.25s forwards cubic-bezier(0.47, 0, 0.75, 0.72) 0.25s;
		}

		g.letters path:nth-child(3) {
		 	animation: showLetter 0.25s forwards cubic-bezier(0.47, 0, 0.75, 0.72) 0.4s;
		}

		g.letters path:nth-child(4) {
		 	animation: showLetter 0.25s forwards cubic-bezier(0.47, 0, 0.75, 0.72) 0.5s;
		}

		g.letters path:nth-child(5) {
		 	animation: showLetter 0.25s forwards cubic-bezier(0.47, 0, 0.75, 0.72) 0.6s;
		}

		g.letters path:nth-child(6) {
		 	animation: showLetter 0.25s forwards cubic-bezier(0.47, 0, 0.75, 0.72) 0.7s;
		}

		g.letters path:nth-child(7) {
		 	animation: showLetter 0.25s forwards cubic-bezier(0.47, 0, 0.75, 0.72) 0.8s;
		}

		g.letters path:nth-child(8) {
		 	animation: showLetter 0.25s forwards cubic-bezier(0.47, 0, 0.75, 0.72) 0.9s;
		}

		g.letters path:nth-child(9) {
		 	animation: showLetter 0.25s forwards cubic-bezier(0.47, 0, 0.75, 0.72) 1s;
		}

		g.letters path:nth-child(10) {
		 	animation: showLetter 0.25s forwards cubic-bezier(0.47, 0, 0.75, 0.72) 1.1s;
		}

		.bracket:nth-child(2) { 
			transform: translateX(105px);
			animation: bracketTranslateReverse 1.05s forwards cubic-bezier(0.47, 0, 0.75, 0.72);
			will-change: transform;
		}

		.bracket:last-child{ 
			transform: translateX(-105px);
			animation: bracketTranslate 1.05s forwards cubic-bezier(0.47, 0, 0.75, 0.72);
			will-change: transform;
		}

		@keyframes bracketTranslate {
			0% 	 { transform: translateX(-105px); }
			100% { transform: none; }
		}

		@keyframes bracketTranslateReverse {
			0%   { transform: translateX(105px); }
			100% { transform: none; }
		}

		@keyframes showLetter {
			0% 	 { opacity: 0; }
			100% { opacity: 1; }
		}
	</style>
	<path fill="#CE93D8" d="M10.5,38.2c-4.7-1.3-7-4.3-7-9.1v-3.9c0-2.7-1.2-4.1-3.5-4.1v-4c2.3,0,3.4-1.3,3.5-3.9V9.1
		c0-2.4,0.6-4.4,1.8-5.8S8.2,0.7,10.5,0l1.1,3.1c-1,0.4-1.7,1-2.2,1.9C8.8,6,8.6,7.2,8.6,8.8v4.1c0,2.9-1.2,5-3.5,6.2
		c2.3,1.2,3.5,3.3,3.5,6.2v4.1c0.1,3,1.1,4.9,3,5.6L10.5,38.2z" class="bracket" />

	<g class="letters">
		<path fill="#CE93D8" d="M35.1,13.3c-0.5-0.1-1.1-0.1-1.8-0.1c-2.4,0-4,1-4.8,3v15h-3.6V10.1h3.5l0.1,2.4c1.2-1.9,2.9-2.8,5-2.8
			c0.7,0,1.2,0.1,1.6,0.3V13.3z"/>
		<path fill="#CE93D8" d="M46.8,31.6c-2.9,0-5.2-0.9-7-2.8c-1.8-1.9-2.7-4.4-2.7-7.5v-0.7c0-2.1,0.4-4,1.2-5.6
			c0.8-1.6,1.9-2.9,3.4-3.9c1.4-0.9,3-1.4,4.7-1.4c2.7,0,4.9,0.9,6.4,2.7c1.5,1.8,2.3,4.4,2.3,7.8v1.5H40.8c0.1,2.1,0.7,3.8,1.8,5
			c1.2,1.3,2.6,1.9,4.4,1.9c1.3,0,2.4-0.3,3.2-0.8c0.9-0.5,1.7-1.2,2.3-2.1l2.2,1.7C53,30.2,50.4,31.6,46.8,31.6z M46.4,12.6
			c-1.5,0-2.7,0.5-3.7,1.6c-1,1.1-1.6,2.5-1.8,4.5h10.6v-0.3c-0.1-1.8-0.6-3.3-1.5-4.3C49.1,13.1,47.9,12.6,46.4,12.6z"/>
		<path fill="#FFFFFF" d="M77.1,20.9c0,3.2-0.7,5.8-2.2,7.8c-1.5,2-3.5,2.9-6,2.9c-2.6,0-4.6-0.8-6.1-2.4v10.2h-3.6V10.1h3.3l0.2,2.3
			c1.5-1.8,3.5-2.7,6.1-2.7c2.5,0,4.5,1,6,2.9c1.5,1.9,2.2,4.6,2.2,8V20.9z M73.5,20.4c0-2.4-0.5-4.3-1.5-5.6c-1-1.4-2.4-2.1-4.2-2.1
			c-2.2,0-3.8,1-4.9,2.9v10.1c1.1,1.9,2.7,2.9,5,2.9c1.7,0,3.1-0.7,4.1-2.1C73,25.2,73.5,23.2,73.5,20.4z"/>
		<path fill="#FFFFFF" d="M91.9,13.3c-0.5-0.1-1.1-0.1-1.8-0.1c-2.4,0-4,1-4.8,3v15h-3.6V10.1h3.5l0.1,2.4c1.2-1.9,2.9-2.8,5-2.8
			c0.7,0,1.2,0.1,1.6,0.3V13.3z"/>
		<path fill="#FFFFFF" d="M93.9,20.4c0-2.1,0.4-3.9,1.2-5.6c0.8-1.7,1.9-2.9,3.4-3.8c1.5-0.9,3.1-1.3,5-1.3c2.9,0,5.2,1,7,3
			s2.7,4.6,2.7,7.9v0.3c0,2.1-0.4,3.9-1.2,5.5c-0.8,1.6-1.9,2.9-3.4,3.8c-1.5,0.9-3.1,1.4-5,1.4c-2.9,0-5.2-1-7-3s-2.7-4.6-2.7-7.9
			V20.4z M97.5,20.9c0,2.3,0.5,4.2,1.6,5.6c1.1,1.4,2.5,2.1,4.4,2.1c1.8,0,3.3-0.7,4.4-2.2c1.1-1.4,1.6-3.5,1.6-6
			c0-2.3-0.6-4.2-1.7-5.6c-1.1-1.4-2.6-2.2-4.4-2.2c-1.8,0-3.2,0.7-4.3,2.1C98.1,16.2,97.5,18.2,97.5,20.9z"/>
		<path fill="#FFFFFF" d="M116.8,20.4c0-3.3,0.8-5.9,2.3-7.9c1.5-1.9,3.5-2.9,6.1-2.9c2.6,0,4.6,0.9,6,2.7l0.2-2.3h3.3v20.6
			c0,2.7-0.8,4.9-2.4,6.5c-1.6,1.6-3.8,2.4-6.5,2.4c-1.5,0-3-0.3-4.5-1c-1.5-0.7-2.6-1.5-3.3-2.7l1.9-2.2c1.5,1.9,3.4,2.9,5.7,2.9
			c1.8,0,3.1-0.5,4.1-1.5c1-1,1.5-2.4,1.5-4.2v-1.8c-1.4,1.7-3.4,2.5-5.9,2.5c-2.5,0-4.5-1-6-3C117.6,26.6,116.8,23.9,116.8,20.4z
			 M120.4,20.9c0,2.4,0.5,4.3,1.5,5.6c1,1.4,2.3,2,4.1,2c2.3,0,4-1,5-3.1v-9.6c-1.1-2-2.8-3-5-3c-1.8,0-3.1,0.7-4.1,2.1
			C120.9,16.2,120.4,18.2,120.4,20.9z"/>
		<path fill="#FFFFFF" d="M150.3,13.3c-0.5-0.1-1.1-0.1-1.8-0.1c-2.4,0-4,1-4.8,3v15h-3.6V10.1h3.5l0.1,2.4c1.2-1.9,2.9-2.8,5-2.8
			c0.7,0,1.2,0.1,1.6,0.3V13.3z"/>
		<path fill="#FFFFFF" d="M165.9,31.2c-0.2-0.4-0.4-1.2-0.5-2.2c-1.7,1.7-3.7,2.6-6,2.6c-2.1,0-3.8-0.6-5.1-1.8c-1.3-1.2-2-2.7-2-4.5
			c0-2.2,0.8-3.9,2.5-5.1c1.7-1.2,4-1.8,7.1-1.8h3.5v-1.7c0-1.3-0.4-2.3-1.1-3c-0.8-0.7-1.9-1.1-3.3-1.1c-1.3,0-2.4,0.3-3.2,1
			c-0.9,0.7-1.3,1.4-1.3,2.4h-3.6c0-1.1,0.4-2.1,1.1-3.1c0.7-1,1.8-1.8,3-2.3c1.3-0.6,2.7-0.9,4.2-0.9c2.4,0,4.3,0.6,5.7,1.8
			c1.4,1.2,2.1,2.9,2.1,5v9.7c0,1.9,0.2,3.5,0.7,4.6v0.3H165.9z M159.9,28.4c1.1,0,2.2-0.3,3.2-0.9s1.8-1.3,2.2-2.3v-4.3h-2.8
			c-4.4,0-6.6,1.3-6.6,3.9c0,1.1,0.4,2,1.1,2.7C157.7,28.1,158.7,28.4,159.9,28.4z"/>
		<path fill="#FFFFFF" d="M178,10.1l0.1,2.3c1.5-1.8,3.6-2.7,6.3-2.7c3,0,5,1.1,6,3.4c0.7-1,1.6-1.8,2.7-2.5c1.1-0.6,2.5-0.9,4-0.9
			c4.6,0,7,2.5,7.1,7.4v14.2h-3.6V17.2c0-1.5-0.3-2.6-1-3.4c-0.7-0.7-1.8-1.1-3.5-1.1c-1.3,0-2.5,0.4-3.3,1.2
			c-0.9,0.8-1.4,1.9-1.5,3.2v14h-3.6V17.3c0-3.1-1.5-4.6-4.5-4.6c-2.4,0-4,1-4.9,3v15.4h-3.6V10.1H178z"/>
		<path fill="#FFFFFF" d="M222.7,31.2c-0.2-0.4-0.4-1.2-0.5-2.2c-1.7,1.7-3.7,2.6-6,2.6c-2.1,0-3.8-0.6-5.1-1.8c-1.3-1.2-2-2.7-2-4.5
			c0-2.2,0.8-3.9,2.5-5.1c1.7-1.2,4-1.8,7.1-1.8h3.5v-1.7c0-1.3-0.4-2.3-1.1-3c-0.8-0.7-1.9-1.1-3.3-1.1c-1.3,0-2.4,0.3-3.2,1
			c-0.9,0.7-1.3,1.4-1.3,2.4h-3.6c0-1.1,0.4-2.1,1.1-3.1c0.7-1,1.8-1.8,3-2.3c1.3-0.6,2.7-0.9,4.2-0.9c2.4,0,4.3,0.6,5.7,1.8
			c1.4,1.2,2.1,2.9,2.1,5v9.7c0,1.9,0.2,3.5,0.7,4.6v0.3H222.7z M216.7,28.4c1.1,0,2.2-0.3,3.2-0.9s1.8-1.3,2.2-2.3v-4.3h-2.8
			c-4.4,0-6.6,1.3-6.6,3.9c0,1.1,0.4,2,1.1,2.7C214.6,28.1,215.5,28.4,216.7,28.4z"/>
	</g>
	<path fill="#CE93D8" d="M239.3,35.1c2-0.7,3-2.6,3-5.7v-4.1c0-2.9,1.2-5,3.6-6.1c-2.4-1.1-3.6-3.2-3.6-6.2V8.8c-0.1-3-1.1-4.9-3-5.7
		l1.1-3.1c2.3,0.7,4.1,1.7,5.3,3.2c1.2,1.5,1.8,3.4,1.8,5.8v4.2c0.1,2.6,1.2,3.9,3.5,3.9v4c-2.3,0-3.5,1.4-3.5,4.1v4.2
		c-0.1,4.6-2.4,7.5-7,8.8L239.3,35.1z" class="bracket" />
</svg>